<svg xmlns="http://www.w3.org/2000/svg" version="1.1" xmlns:xlink="http://www.w3.org/1999/xlink"
	xmlns:svgjs="http://svgjs.dev/svgjs" width="1500" height="1500" viewBox="0 0 1500 1500">
	<rect width="1500" height="1500" fill="#ffffff"></rect>
	<g transform="matrix(0.6666666666666666,0,0,0.6666666666666666,249.39393939393938,435.99032258064517)"><svg
			viewBox="0 0 396 248" data-background-color="#ffffff" preserveAspectRatio="xMidYMid meet" height="939"
			width="1500" xmlns="http://www.w3.org/2000/svg" xmlns:xlink="http://www.w3.org/1999/xlink">
			<g transform="matrix(1,0,0,1,0.2400000000000091,0.4000000000000057)"><svg viewBox="0 0 395.52 247.2"
					height="247.2" width="395.52">
					<g><svg></svg></g>
					<g><svg viewBox="0 0 395.52 247.2" height="247.2" width="395.52">
							<g transform="matrix(1,0,0,1,75.54432,81.48860468804348)"><svg
									viewBox="0 0 244.43135999999998 84.22279062391303" height="84.22279062391303"
									width="244.43135999999998">
									<g><svg viewBox="0 0 244.43135999999998 84.22279062391303" height="84.22279062391303"
											width="244.43135999999998">
											<g transform="matrix(1,0,0,1,0,52.05306345636211)"><svg
													viewBox="0 0 244.43135999999998 32.16972716755091" height="32.16972716755091"
													width="244.43135999999998">
													<g><svg viewBox="0 0 244.43135999999998 32.16972716755091" height="32.16972716755091"
															width="244.43135999999998">
															<g><svg viewBox="0 0 244.43135999999998 32.16972716755091" height="32.16972716755091"
																	width="244.43135999999998">
																	<g transform="matrix(1,0,0,1,0,0)"><svg width="244.43135999999998"
																			viewBox="3.69 -37.55 285.28000000000003 37.55" height="32.16972716755091"
																			data-palette-color="#291338">
																			<path
																				d="M32.64-20.7L32.64-14.31 12.57-14.31 12.57-20.7 32.64-20.7ZM35.47-35.01L35.47-28.66 10.03-28.66 10.03 0 3.69 0 3.69-31.81Q3.69-32.47 3.93-33.06 4.17-33.64 4.6-34.08 5.03-34.52 5.62-34.77 6.2-35.01 6.88-35.01L6.88-35.01 35.47-35.01ZM67.87-17.5L67.87-8.91Q67.87-7.28 67.45-5.97 67.04-4.66 66.35-3.67 65.67-2.69 64.77-1.99 63.86-1.29 62.88-0.85 61.89-0.42 60.87-0.21 59.86 0 58.96 0L58.96 0 47.51 0Q46.19 0 44.63-0.46 43.06-0.93 41.73-1.99 40.4-3.05 39.51-4.75 38.62-6.45 38.62-8.91L38.62-8.91 38.62-17.5Q38.62-19.95 39.51-21.64 40.4-23.34 41.73-24.4 43.06-25.46 44.63-25.93 46.19-26.39 47.51-26.39L47.51-26.39 58.96-26.39Q61.4-26.39 63.11-25.51 64.82-24.63 65.87-23.3 66.92-21.97 67.39-20.41 67.87-18.85 67.87-17.5L67.87-17.5ZM61.52-8.91L61.52-17.46Q61.52-18.77 60.86-19.41 60.2-20.04 58.96-20.04L58.96-20.04 47.56-20.04Q46.29-20.04 45.63-19.4 44.97-18.75 44.97-17.5L44.97-17.5 44.97-8.91Q44.97-7.67 45.63-7.01 46.29-6.35 47.56-6.35L47.56-6.35 58.96-6.35Q60.25-6.35 60.89-7.01 61.52-7.67 61.52-8.91L61.52-8.91ZM101.97-17.5L101.97-8.91Q101.97-7.28 101.56-5.97 101.14-4.66 100.46-3.67 99.78-2.69 98.87-1.99 97.97-1.29 96.98-0.85 95.99-0.42 94.98-0.21 93.96 0 93.06 0L93.06 0 81.61 0Q80.29 0 78.73-0.46 77.17-0.93 75.84-1.99 74.51-3.05 73.62-4.75 72.72-6.45 72.72-8.91L72.72-8.91 72.72-17.5Q72.72-19.95 73.62-21.64 74.51-23.34 75.84-24.4 77.17-25.46 78.73-25.93 80.29-26.39 81.61-26.39L81.61-26.39 93.06-26.39Q95.5-26.39 97.21-25.51 98.92-24.63 99.97-23.3 101.02-21.97 101.5-20.41 101.97-18.85 101.97-17.5L101.97-17.5ZM95.62-8.91L95.62-17.46Q95.62-18.77 94.97-19.41 94.31-20.04 93.06-20.04L93.06-20.04 81.66-20.04Q80.39-20.04 79.73-19.4 79.07-18.75 79.07-17.5L79.07-17.5 79.07-8.91Q79.07-7.67 79.73-7.01 80.39-6.35 81.66-6.35L81.66-6.35 93.06-6.35Q94.36-6.35 94.99-7.01 95.62-7.67 95.62-8.91L95.62-8.91ZM136.32-37.55L136.32-8.91Q136.32-7.28 135.91-5.97 135.49-4.66 134.81-3.67 134.12-2.69 133.22-1.99 132.32-1.29 131.33-0.85 130.34-0.42 129.33-0.21 128.31 0 127.41 0L127.41 0 115.96 0Q114.32 0 113.03-0.42 111.74-0.83 110.75-1.53 109.76-2.22 109.06-3.13 108.37-4.03 107.93-5.02 107.49-6.01 107.28-7.02 107.07-8.03 107.07-8.91L107.07-8.91 107.07-17.5Q107.07-19.95 107.96-21.64 108.85-23.34 110.19-24.4 111.52-25.46 113.08-25.93 114.64-26.39 115.96-26.39L115.96-26.39 127.41-26.39 127.41-20.04 116.01-20.04Q114.74-20.04 114.08-19.4 113.42-18.75 113.42-17.5L113.42-17.5 113.42-8.96Q113.42-7.67 114.07-7.01 114.71-6.35 115.96-6.35L115.96-6.35 127.41-6.35Q128.7-6.35 129.34-7.01 129.97-7.67 129.97-8.91L129.97-8.91 129.97-37.55 136.32-37.55ZM182.24-26.39L182.24-20.04 171.15-20.04 171.15 0 164.73 0 164.73-20.04 156.48-20.04 156.48-26.39 164.73-26.39 164.73-35.01 171.15-35.01 171.15-26.39 182.24-26.39ZM209.36-26.39L209.36-20.04 195.08-20.04Q193.78-20.04 193.12-19.4 192.47-18.75 192.47-17.5L192.47-17.5 192.47 0 186.12 0 186.12-17.5Q186.12-19.14 186.53-20.43 186.95-21.73 187.64-22.72 188.34-23.71 189.24-24.4 190.15-25.1 191.13-25.54 192.12-25.98 193.14-26.18 194.15-26.39 195.03-26.39L195.03-26.39 209.36-26.39ZM219.98-37.55L219.98-31.81 213.63-31.81 213.63-37.55 219.98-37.55ZM219.98-26.39L219.98 0 213.63 0 213.63-26.39 219.98-26.39ZM255.16-17.5L255.16-8.91Q255.16-8.01 254.95-7.01 254.74-6.01 254.3-5.02 253.86-4.03 253.17-3.13 252.47-2.22 251.48-1.53 250.49-0.83 249.2-0.42 247.9 0 246.27 0L246.27 0 234.82 0Q233.92 0 232.91-0.21 231.91-0.42 230.92-0.85 229.94-1.29 229.03-1.99 228.13-2.69 227.43-3.67 226.74-4.66 226.32-5.97 225.91-7.28 225.91-8.91L225.91-8.91 225.91-37.55 232.26-37.55 232.26-8.91Q232.26-7.74 232.99-7.04 233.72-6.35 234.82-6.35L234.82-6.35 246.27-6.35Q247.47-6.35 248.14-7.06 248.81-7.76 248.81-8.91L248.81-8.91 248.81-17.5Q248.81-18.7 248.1-19.37 247.39-20.04 246.27-20.04L246.27-20.04 234.82-20.04 234.82-26.39 246.27-26.39Q247.17-26.39 248.17-26.18 249.17-25.98 250.16-25.54 251.15-25.1 252.06-24.4 252.96-23.71 253.64-22.72 254.33-21.73 254.74-20.43 255.16-19.14 255.16-17.5L255.16-17.5ZM288.97-17.65L288.97-17.65Q288.97-16.33 288.5-14.81 288.04-13.28 287-11.98 285.96-10.67 284.29-9.79 282.62-8.91 280.23-8.91L280.23-8.91 268.78-8.91 268.78-14.94 280.23-14.94Q281.52-14.94 282.23-15.73 282.94-16.53 282.94-17.7L282.94-17.7Q282.94-18.95 282.14-19.65 281.35-20.36 280.23-20.36L280.23-20.36 268.78-20.36Q267.48-20.36 266.77-19.57 266.07-18.77 266.07-17.6L266.07-17.6 266.07-8.74Q266.07-7.47 266.86-6.76 267.65-6.05 268.83-6.05L268.83-6.05 280.23-6.05 280.23 0 268.78 0Q267.46 0 265.93-0.46 264.41-0.93 263.1-1.97 261.79-3 260.92-4.68 260.04-6.35 260.04-8.74L260.04-8.74 260.04-17.65Q260.04-18.97 260.5-20.5 260.96-22.02 262-23.33 263.04-24.63 264.71-25.51 266.38-26.39 268.78-26.39L268.78-26.39 280.23-26.39Q281.54-26.39 283.07-25.93 284.6-25.46 285.9-24.43 287.21-23.39 288.09-21.72 288.97-20.04 288.97-17.65Z"
																				opacity="1" transform="matrix(1,0,0,1,0,0)" fill="#291338"
																				class="wordmark-text-0" data-fill-palette-color="primary"></path>
																		</svg></g>
																</svg></g>
														</svg></g>
												</svg></g>
											<g transform="matrix(1,0,0,1,101.6046247624588,0)"><svg
													viewBox="0 0 41.222110475082374 44.458562945555364" height="44.458562945555364"
													width="41.222110475082374">
													<g><svg xmlns="http://www.w3.org/2000/svg" xmlns:xlink="http://www.w3.org/1999/xlink"
															version="1.1" x="0" y="0"
															viewBox="8.274803557993174 5 83.44821462532789 89.99994565675959"
															enable-background="new 0 0 100 100" xml:space="preserve" height="44.458562945555364"
															width="41.222110475082374" class="icon-icon-0" data-fill-palette-color="accent">
															<circle cx="50" cy="32.586" r="10" fill="#ea6036" data-fill-palette-color="accent">
															</circle>
															<path
																d="M91.488 80.535L58.805 69.641C54.999 73.395 52.117 75.795 51.755 76.093L50 77.542 48.245 76.093C47.883 75.795 45.001 73.395 41.196 69.641L8.512 80.535A0.344 0.344 0 0 0 8.512 81.189L49.891 94.982A0.34 0.34 0 0 0 50.109 94.982L91.488 81.189A0.345 0.345 0 0 0 91.488 80.535"
																fill="#ea6036" data-fill-palette-color="accent"></path>
															<path
																d="M50 73.965S77.586 51.207 77.586 32.586C77.586 17.351 65.234 5 50 5 34.765 5 22.414 17.351 22.414 32.586 22.414 51.207 50 73.965 50 73.965M32.759 32.587C32.759 23.064 40.478 15.345 50 15.345S67.241 23.064 67.241 32.587 59.521 49.828 50 49.828 32.759 42.109 32.759 32.587"
																fill="#ea6036" data-fill-palette-color="accent"></path>
														</svg></g>
												</svg></g>
											<g></g>
										</svg></g>
								</svg></g>
							<g>
								<path
									d="M86.109 73.894A122.216 122.216 0 0 1 309.411 73.894L306.51 73.894A119.315 119.315 0 0 0 89.01 73.894L86.109 73.894M86.109 173.306A122.216 122.216 0 0 0 309.411 173.306L306.51 173.306A119.315 119.315 0 0 1 89.01 173.306L86.109 173.306"
									fill="#ef5b2a" stroke="transparent" data-fill-palette-color="tertiary"></path>
							</g>
						</svg></g>
					<defs></defs>
				</svg>
				<rect width="395.52" height="247.2" fill="none" stroke="none" visibility="hidden"></rect>
			</g>
		</svg></g>
</svg>
