<?xml version="1.0" standalone="no"?>
<!DOCTYPE svg PUBLIC "-//W3C//DTD SVG 20010904//EN"
 "http://www.w3.org/TR/2001/REC-SVG-20010904/DTD/svg10.dtd">
<svg version="1.0" xmlns="http://www.w3.org/2000/svg"
 width="260.000000pt" height="260.000000pt" viewBox="0 0 260.000000 260.000000"
 preserveAspectRatio="xMidYMid meet">
<metadata>
Created by potrace 1.14, written by Peter Selinger 2001-2017
</metadata>
<g transform="translate(0.000000,260.000000) scale(0.100000,-0.100000)"
fill="#000000" stroke="none">
<path d="M1173 1946 c-194 -48 -353 -212 -389 -401 -34 -184 32 -354 231 -595
74 -90 235 -254 264 -269 33 -18 282 242 396 414 126 190 157 336 105 505 -48
158 -191 297 -350 340 -65 18 -196 21 -257 6z m225 -200 c65 -22 148 -96 182
-162 21 -42 25 -63 25 -139 0 -104 -20 -158 -86 -226 -60 -63 -137 -94 -234
-93 -67 0 -89 5 -134 28 -108 56 -170 148 -179 267 -16 233 201 399 426 325z"/>
<path d="M1226 1620 c-33 -10 -82 -54 -101 -90 -44 -86 -14 -197 66 -243 70
-40 137 -39 201 3 181 120 44 392 -166 330z"/>
<path d="M810 646 l-305 -103 35 -15 c19 -8 196 -68 394 -133 l358 -119 384
128 c211 70 386 131 388 135 3 4 -55 26 -127 50 -73 23 -141 46 -152 51 -11 5
-85 30 -165 56 -80 26 -149 48 -155 50 -5 2 -37 -21 -70 -52 -91 -84 -100 -89
-127 -71 -13 8 -50 40 -83 71 -33 30 -62 55 -65 55 -3 0 -142 -47 -310 -103z"/>
</g>
</svg>
